<svg width="17" height="8" viewBox="0 0 17 8" fill="none" xmlns="http://www.w3.org/2000/svg">
<path fill-rule="evenodd" clip-rule="evenodd" d="M5.7664 2.09534C5.55107 2.13575 5.36407 2.33534 5.34707 2.54221C5.33088 2.74827 5.49197 2.88322 5.7065 2.84282C5.92183 2.80322 6.10964 2.60282 6.12583 2.39676C6.14202 2.18989 5.98093 2.05494 5.7664 2.09534Z" fill="#E73328"/>
<path fill-rule="evenodd" clip-rule="evenodd" d="M3.44862 3.57422C3.21629 3.62109 2.97019 3.67523 2.71762 3.73584C3.15314 2.96089 3.63562 2.18352 4.08491 1.57422C3.86067 2.12129 3.63643 2.85665 3.44862 3.57422ZM7.28252 3.01342C7.19348 3.02958 7.09067 3.04816 6.69076 3.51443C6.78952 3.33503 6.82029 3.18715 6.70048 3.10634C6.57419 3.0215 6.35643 3.08776 6.23419 3.16695C6.15891 3.21624 6.15729 3.24049 6.14433 3.33422C6.13381 3.39483 6.07714 3.5322 6.03829 3.60897L5.91686 3.86756C5.45705 4.66756 5.20043 4.88574 5.12514 4.97705C5.04662 5.0619 4.98267 5.11119 4.93733 5.12008C4.90414 5.12574 4.88957 5.1023 4.89281 5.05867C4.89848 4.99321 4.92195 4.90271 4.97538 4.78554C5.06281 4.58675 5.20124 4.2918 5.31052 4.09463C5.36962 3.97584 5.52262 3.69867 5.52262 3.69867C5.66671 3.37624 5.3931 3.26473 5.23281 3.28816C5.18586 3.29544 4.68233 3.35281 4.10514 3.4514C4.42086 2.13503 4.39414 2.3314 4.722 1.48776C4.88229 1.07645 4.86448 0.981901 4.72929 0.826749C4.5941 0.67079 4.61838 0.498668 4.46538 0.484931C4.10838 0.452608 2.87386 2.232 1.88057 3.96129C1.41267 4.1019 0.943953 4.26756 0.512477 4.46392C0.225096 4.59402 0.280953 4.83241 0.306049 4.95443C0.342477 5.12493 0.528668 5.20089 0.676001 5.11766C0.900239 4.9916 1.15686 4.872 1.4321 4.76049C1.424 4.77826 1.41995 4.78877 1.42319 4.78715C1.04676 5.49503 0.624191 6.48251 0.485763 6.92049C0.408858 7.16614 0.531906 7.38513 0.742382 7.48129C0.953668 7.57665 1.09695 7.47564 1.16819 7.14675C1.25562 6.73786 1.78991 5.47079 2.32986 4.44695C2.33067 4.44695 2.3331 4.44291 2.33714 4.43564C2.66338 4.3322 2.99205 4.23847 3.30452 4.15604C3.11348 4.96251 3.06491 5.29624 3.06733 5.57342C3.06976 5.84655 3.17014 6.16493 3.46967 6.12129C3.76838 6.07766 3.71981 5.79806 3.753 5.53786C3.8291 4.9423 3.84043 4.68453 3.98129 4.00331C3.98452 4.00251 3.98857 3.99523 3.99343 3.98392C4.32533 3.90554 4.60867 3.84574 4.807 3.80534C4.77948 3.86594 4.7471 3.9322 4.71391 4.00251C4.58276 4.26837 4.4411 4.59564 4.35043 4.83241C4.26624 5.06837 4.21848 5.25422 4.20552 5.41261C4.178 5.76089 4.32614 5.94837 4.58843 5.89988C4.78352 5.86271 5.08305 5.59927 5.42062 5.07402C5.38257 5.19927 5.3591 5.3019 5.35667 5.36574C5.34614 5.63806 5.48133 5.8619 5.92091 5.56453C5.96543 5.53463 5.9711 5.49099 5.97271 5.40453C5.99619 5.11039 6.11438 4.72089 6.37748 4.32331C6.5831 4.01624 6.728 3.84251 6.915 3.76089C7.24852 3.61705 7.46062 3.6623 7.64681 3.43766C7.82895 3.21786 7.4501 2.9819 7.28252 3.01342Z" fill="#E73328"/>
<path fill-rule="evenodd" clip-rule="evenodd" d="M15.1083 4.36041C14.9423 4.58101 14.7869 4.7192 14.6971 4.73212C14.6404 4.7394 14.6088 4.68526 14.6193 4.60364C14.6444 4.40324 14.9699 3.79879 15.2127 3.49899C15.3771 3.2897 15.5503 3.14263 15.6288 3.13212C15.6911 3.12324 15.7138 3.15798 15.7041 3.23879C15.6806 3.41819 15.3325 4.07435 15.1083 4.36041ZM16.4561 3.88606C16.3606 4.04202 16.2756 4.17374 16.1526 4.30707C16.0417 4.42829 15.9534 4.47596 15.9057 4.45899C15.7786 4.41293 15.8506 4.23111 15.9818 3.96526C16.0425 3.84 16.1283 3.67839 16.2068 3.5394C16.3185 3.3592 16.3412 3.30829 16.3501 3.24283C16.3614 3.15071 16.3031 3.0893 16.1299 3.01738C16.0206 2.96889 16.0109 2.96 15.9664 2.83233C15.9032 2.67637 15.7697 2.59879 15.607 2.62142C15.3584 2.65536 14.9699 2.95596 14.6266 3.38021C14.5003 3.52243 14.0721 4.09778 14.0195 4.17051L13.9531 4.2594C13.7661 4.51475 13.7135 4.57536 13.6301 4.66667C13.5483 4.74667 13.482 4.79354 13.4366 4.8C13.4026 4.80485 13.3897 4.7798 13.3953 4.73617C13.4034 4.67152 13.431 4.58182 13.4901 4.46707C13.5872 4.27313 13.7394 3.98546 13.8576 3.79313C13.9223 3.67839 14.0349 3.46909 14.043 3.44647L14.1069 3.33657C14.268 3.04647 14.0211 2.90667 13.8341 2.92122C13.7604 2.92768 13.639 2.98021 13.5775 3.02627C13.5297 3.0594 13.5224 3.07071 13.5087 3.13697C13.4925 3.2194 13.3816 3.46021 13.2658 3.67273C13.1225 3.93212 12.9655 4.25212 12.8643 4.48485C12.768 4.71677 12.7113 4.90021 12.6919 5.05697C12.6473 5.40445 12.785 5.5992 13.0497 5.56202C13.2464 5.53536 13.4569 5.34707 13.7159 5.0497C13.7985 4.95516 13.8908 4.82586 13.979 4.6901C13.9312 5.07637 14.1239 5.34303 14.4542 5.29778C14.6736 5.26707 14.8581 5.10546 15.0961 4.84364C15.1277 4.81293 15.1407 4.80081 15.1569 4.79839C15.1739 4.79596 15.1892 4.8097 15.1901 4.84122L15.2022 4.87677C15.2346 5.05374 15.3681 5.13617 15.5592 5.11031C15.7948 5.07718 16.0546 4.90182 16.338 4.54303C16.5671 4.26101 16.6585 4.05495 16.7063 3.92647C16.7128 3.91031 16.7152 3.89576 16.7152 3.88202C16.7176 3.77051 16.5436 3.74384 16.4561 3.88606Z" fill="#E73328"/>
<path fill-rule="evenodd" clip-rule="evenodd" d="M14.2015 2.55111C14.416 2.5107 14.6038 2.31111 14.62 2.10424C14.637 1.89818 14.4759 1.76323 14.2606 1.80282C14.0461 1.84323 13.8582 2.04363 13.8421 2.24969C13.8251 2.45656 13.9861 2.5907 14.2015 2.55111Z" fill="#E73328"/>
<path fill-rule="evenodd" clip-rule="evenodd" d="M10.9359 1.57413C10.7124 2.1204 10.4882 2.85333 10.3012 3.56929C10.0721 3.61373 9.82762 3.66626 9.57424 3.72605C10.009 2.95434 10.4882 2.181 10.9359 1.57413ZM11.0476 3.43999C11.0176 3.44403 10.9869 3.44888 10.9561 3.45373C11.2718 2.13494 11.2451 2.33211 11.573 1.48767C11.7332 1.07636 11.7154 0.981811 11.5802 0.82666C11.445 0.6707 11.4693 0.498579 11.3163 0.484841C10.9601 0.452518 9.73048 2.22383 8.73881 3.94989C8.27252 4.08969 7.80381 4.25858 7.37395 4.46141C7.10519 4.58828 7.16024 4.82747 7.18533 4.94868C7.22095 5.11999 7.39743 5.19757 7.53505 5.11595C7.75686 4.98504 8.01348 4.86222 8.28872 4.74828C8.27657 4.77413 7.53424 6.24403 7.33672 6.9204C7.26548 7.16767 7.38286 7.38504 7.59333 7.48121C7.80462 7.57656 7.94791 7.47555 8.01914 7.14666C8.10738 6.73777 8.81329 5.09898 9.19943 4.41777C9.52486 4.31353 9.85191 4.2206 10.1563 4.14141C10.1555 4.14706 9.91991 5.09171 9.91829 5.57333C9.91748 5.84646 10.0211 6.16484 10.3206 6.12121C10.6193 6.07757 10.5708 5.79797 10.604 5.53777C10.68 4.94222 10.6914 4.68444 10.8322 4.00323C10.8371 4.00242 10.8428 3.9903 10.8492 3.9709C10.9278 3.95312 11.003 3.93615 11.0727 3.9208C11.4467 3.83838 11.5527 3.84242 11.5778 3.54908C11.5932 3.36888 11.1763 3.41979 11.0476 3.43999Z" fill="#E73328"/>
<path fill-rule="evenodd" clip-rule="evenodd" d="M11.5219 5.83271C11.3284 5.85372 10.9067 5.75756 10.8363 5.42059C10.812 5.3115 10.9706 5.01897 11.0038 4.96806C11.0605 4.88079 11.1495 4.93251 11.1795 4.97614C11.2459 5.07311 11.6013 5.3915 11.8069 5.18544C11.9388 5.05372 11.734 4.88079 11.6482 4.73938C11.3317 4.21816 11.7591 3.61453 11.8943 3.48119C12.1865 3.19433 12.3922 3.16847 12.5363 3.16443C12.9532 3.15069 13.0964 3.38503 13.0649 3.52402C13.0309 3.67675 12.9491 3.76645 12.8933 3.82625C12.8528 3.87069 12.7354 3.88281 12.699 3.82948C12.6107 3.69938 12.5589 3.52645 12.3023 3.62988C12.0967 3.71311 12.0845 3.99352 12.1291 4.13008C12.2011 4.34827 12.4925 4.51392 12.4901 4.82907C12.4836 5.64443 11.7672 5.80604 11.5219 5.83271Z" fill="#E73328"/>
</svg>
