<svg width="393" height="397" viewBox="0 0 393 397" fill="none" xmlns="http://www.w3.org/2000/svg">
<rect width="393" height="397" fill="#006BFF"/>
<path d="M209.142 69.1071L204.318 68.0659C203.913 67.9778 203.493 67.978 203.087 68.0666C202.682 68.1551 202.3 68.3298 201.968 68.5788L187.398 79.1674L183.899 79.0143C183.699 79.0075 183.501 79.0638 183.334 79.1753C183.168 79.2868 183.04 79.4478 182.97 79.6356C182.9 79.8235 182.89 80.0286 182.943 80.2221C182.996 80.4156 183.108 80.5877 183.264 80.714L186.671 83.4167C186.727 83.4619 186.793 83.492 186.864 83.5041C186.935 83.5161 187.008 83.5098 187.076 83.4856C188.049 83.1104 191.67 81.1887 195.95 78.8382L196.807 87.6506C196.815 87.7269 196.843 87.7998 196.888 87.8614C196.934 87.923 196.996 87.9709 197.066 88.0001C197.137 88.0292 197.215 88.0385 197.291 88.0268C197.366 88.0151 197.438 87.983 197.496 87.9338L199.411 86.3413C199.515 86.2535 199.586 86.1315 199.61 85.9968L201.424 75.8217C204.487 74.122 207.411 72.4759 209.471 71.3121C209.685 71.1958 209.857 71.0166 209.966 70.7988C210.074 70.581 210.113 70.3352 210.077 70.0945C210.041 69.8538 209.932 69.63 209.765 69.4534C209.598 69.2768 209.38 69.1559 209.142 69.1071Z" fill="#FFF100"/>
</svg>
