<svg width="393" height="426" viewBox="0 0 393 426" fill="none" xmlns="http://www.w3.org/2000/svg">
<rect width="393" height="426" fill="url(#paint0_linear_630_148)"/>
<path opacity="0.4" fill-rule="evenodd" clip-rule="evenodd" d="M207.786 174.479L154.063 188.91V177.079C154.063 177.079 162.84 181.02 168.226 179.894C173.611 178.769 175.327 172.953 182.06 171.339C188.256 169.854 195.583 173.524 206.55 173.746L207.786 174.479Z" fill="#00284F" fill-opacity="0.4"/>
<path d="M234.573 159.8L247.159 156.413C257.36 153.668 259.522 160.573 259.537 160.621L236.703 166.739L226.042 183.73L220.657 184.989L224.049 170.129L204.731 175.306L196.861 165.578C196.876 165.572 198.37 164.999 200.593 165.249C202.821 165.501 205.623 167.575 205.638 167.586L222.379 163.08L212.027 152.234L217.535 150.72L234.573 159.8Z" fill="#00284F" fill-opacity="0.3"/>
<path opacity="0.4" fill-rule="evenodd" clip-rule="evenodd" d="M223.259 125.277L148.934 145.757V128.966C148.934 128.966 158.702 135.744 168.527 132.962C178.352 130.18 178.352 123.11 187.668 120.819C196.24 118.712 206.83 125.768 221.55 124.236L223.259 125.277Z" fill="white"/>
<path fill-rule="evenodd" clip-rule="evenodd" d="M231.963 91.3569L248.529 108.715L267.338 103.575L240.178 89.1L231.963 91.3569Z" fill="#CBDCEB"/>
<path fill-rule="evenodd" clip-rule="evenodd" d="M209.344 111.261L221.081 125.768L302.822 103.868C302.822 103.868 299.628 93.482 284.36 97.5919L222.435 114.255C222.435 114.255 218.241 111.145 214.909 110.769C211.578 110.393 209.344 111.261 209.344 111.261Z" fill="white"/>
<path fill-rule="evenodd" clip-rule="evenodd" d="M251.23 114.627L244.834 142.642L252.866 140.765L272.977 108.715L251.23 114.627Z" fill="url(#paint1_linear_630_148)"/>
<path d="M46.5309 272.342C51.0467 271.803 53.9661 273.867 55.3503 274.942C56.7342 276.017 57.7537 277.634 57.6149 278.434C57.4758 279.234 56.4411 279.577 56.4411 279.577L17.4137 290.919C17.4137 290.919 16.6114 291.202 16.196 290.71C15.7806 290.217 16.0896 289.402 16.196 289.145C16.9129 287.417 18.1202 286.156 19.818 285.363C22.743 283.997 26.0195 285.656 26.5798 285.107C27.1396 284.558 26.8215 281.964 29.7096 279.428C32.5984 276.892 37.3344 278.429 38.2585 277.968C39.1829 277.505 42.0152 272.88 46.5309 272.342ZM380.04 225.934C386.359 224.706 391.767 228.458 392.348 229.087C392.929 229.715 393.119 230.166 392.929 230.825C392.741 231.481 391.703 231.801 391.693 231.803L347.03 244.395C347.03 244.395 346.187 244.603 345.854 244.115C345.522 243.626 345.745 242.792 345.854 242.54C346.593 240.84 347.836 239.601 349.585 238.821C352.597 237.478 355.972 239.109 356.549 238.57C357.125 238.03 353.963 234.412 358.738 230.879C363.513 227.345 373.577 230.987 374.482 230.879C375.386 230.769 373.721 227.163 380.04 225.934ZM306.828 47.8161C311.098 47.0675 315.086 48.5124 318.792 52.1501C319.335 52.684 319.903 53.2892 319.718 54.2107C319.535 55.1275 318.26 55.4833 318.247 55.487L274.543 68.1394C274.525 68.1445 273.332 68.4972 272.765 67.8591C272.195 67.2163 272.505 65.9436 272.626 65.6706C273.44 63.8318 274.813 62.4909 276.743 61.6472C280.067 60.1939 283.793 61.9593 284.429 61.3757C285.066 60.792 284.704 58.0318 287.987 55.3337C291.27 52.6357 295.738 54.0109 296.737 53.8933C297.736 53.7747 299.483 49.104 306.828 47.8161Z" fill="#00284F" fill-opacity="0.2"/>
<path d="M68.304 236.7C74.5624 235.942 78.6087 238.851 80.5267 240.366C82.4444 241.881 83.8571 244.16 83.6644 245.288C83.4725 246.411 82.0514 246.894 82.0384 246.899L27.9554 262.886C27.9554 262.886 26.8426 263.285 26.2669 262.591C25.6915 261.897 26.1193 260.748 26.2669 260.386C27.2603 257.949 28.9336 256.172 31.2865 255.054C35.3392 253.128 39.8794 255.467 40.6566 254.694C41.4329 253.921 40.9913 250.264 44.9945 246.689C48.9974 243.114 55.5591 245.28 56.8402 244.63C58.1207 243.98 62.0457 237.459 68.304 236.7ZM367.194 192.846C375.696 191.085 382.971 196.463 383.754 197.365C384.536 198.266 384.791 198.913 384.536 199.857C384.281 200.802 382.873 201.261 382.873 201.261L322.78 219.313C322.78 219.313 321.645 219.612 321.198 218.911C320.75 218.21 321.05 217.015 321.198 216.653C322.191 214.217 323.863 212.439 326.216 211.321C330.269 209.396 334.811 211.735 335.587 210.962C336.363 210.188 332.108 205 338.533 199.935C344.958 194.869 358.499 200.09 359.716 199.935C360.933 199.778 358.691 194.607 367.194 192.846ZM310.886 18.254C316.092 17.2619 320.954 19.1761 325.472 23.9962C326.135 24.7036 326.828 25.5055 326.603 26.7266C326.378 27.9451 324.815 28.4159 324.808 28.418L271.526 45.1827C271.526 45.1827 270.055 45.6621 269.359 44.8106C268.663 43.9589 269.041 42.2729 269.189 41.9112C270.182 39.4745 271.855 37.697 274.208 36.5792C278.261 34.6538 282.802 36.993 283.578 36.2198C284.355 35.4464 283.912 31.789 287.915 28.2139C291.919 24.6388 297.366 26.4616 298.583 26.3057C299.801 26.1499 301.93 19.9606 310.886 18.254Z" fill="white"/>
<defs>
<linearGradient id="paint0_linear_630_148" x1="196.5" y1="0" x2="196.5" y2="426" gradientUnits="userSpaceOnUse">
<stop stop-color="#006BFF"/>
<stop offset="0.796428" stop-color="#004099"/>
</linearGradient>
<linearGradient id="paint1_linear_630_148" x1="247.046" y1="105.5" x2="232.625" y2="132.064" gradientUnits="userSpaceOnUse">
<stop stop-color="#DBE5E8"/>
<stop offset="1" stop-color="#91D3FF"/>
</linearGradient>
</defs>
</svg>
