<svg width="75" height="55" viewBox="0 0 75 55" fill="none" xmlns="http://www.w3.org/2000/svg">
<path d="M72.3822 3.03979L59.0729 0.180881C57.9536 -0.0609156 56.7951 -0.060285 55.6761 0.18273C54.557 0.425746 53.5036 0.905458 52.5873 1.58931L12.3849 30.6619L2.73045 30.2414C2.17745 30.2227 1.63252 30.3774 1.17259 30.6835C0.71267 30.9896 0.360994 31.4317 0.167223 31.9474C-0.0265483 32.4631 -0.0526241 33.0264 0.0926773 33.5576C0.237979 34.0889 0.547316 34.5613 0.977011 34.9082L10.378 42.3287C10.5328 42.453 10.717 42.5356 10.913 42.5687C11.109 42.6019 11.3104 42.5844 11.4977 42.5179C14.1806 41.4879 24.1731 36.2115 35.9824 29.758L38.3485 53.9536C38.3686 54.1631 38.4458 54.3632 38.5718 54.5323C38.6978 54.7014 38.8677 54.8331 39.0634 54.9132C39.2591 54.9932 39.473 55.0186 39.6821 54.9865C39.8911 54.9545 40.0875 54.8663 40.2499 54.7314L45.5313 50.3589C45.8204 50.1176 46.0149 49.7827 46.0806 49.4129L51.0874 21.4755C59.5377 16.8088 67.6078 12.2892 73.2906 9.09394C73.8803 8.77463 74.3572 8.28264 74.6565 7.68463C74.9559 7.08663 75.0632 6.41151 74.9641 5.75076C74.865 5.09 74.5641 4.47554 74.1022 3.99062C73.6404 3.5057 73.0399 3.17377 72.3822 3.03979Z" fill="#FFF100"/>
</svg>
