<svg width="21" height="22" viewBox="0 0 21 22" fill="none" xmlns="http://www.w3.org/2000/svg">
<path d="M6.93788 14.8462L14.6215 7.15385M10.5 1L13.2169 2.63077L16.3718 2.90923L17.6119 5.82769L20 7.90769L19.29 11L20 14.0908L17.6119 16.1723L16.3718 19.0908L13.2169 19.3692L10.5 21L7.78462 19.3692L4.62819 19.0908L3.3896 16.1723L1 14.0908L1.70996 11L1 7.90923L3.3896 5.82769L4.62819 2.90923L7.78462 2.63077L10.5 1ZM9.24296 8.69231C9.24296 9.10033 9.08106 9.49165 8.79287 9.78016C8.50468 10.0687 8.11381 10.2308 7.70624 10.2308C7.29868 10.2308 6.90781 10.0687 6.61962 9.78016C6.33143 9.49165 6.16952 9.10033 6.16952 8.69231C6.16952 8.28428 6.33143 7.89297 6.61962 7.60445C6.90781 7.31593 7.29868 7.15385 7.70624 7.15385C8.11381 7.15385 8.50468 7.31593 8.79287 7.60445C9.08106 7.89297 9.24296 8.28428 9.24296 8.69231ZM15.3898 14.0769C15.3898 14.4849 15.2279 14.8763 14.9397 15.1648C14.6516 15.4533 14.2607 15.6154 13.8531 15.6154C13.4456 15.6154 13.0547 15.4533 12.7665 15.1648C12.4783 14.8763 12.3164 14.4849 12.3164 14.0769C12.3164 13.6689 12.4783 13.2776 12.7665 12.9891C13.0547 12.7005 13.4456 12.5385 13.8531 12.5385C14.2607 12.5385 14.6516 12.7005 14.9397 12.9891C15.2279 13.2776 15.3898 13.6689 15.3898 14.0769Z" stroke="#484C52"/>
</svg>
