<svg width="393" height="852" viewBox="0 0 393 852" fill="none" xmlns="http://www.w3.org/2000/svg">
<rect width="393" height="852" rx="9" fill="#006BFF"/>
<path d="M231.382 402.04L218.073 399.181C216.954 398.939 215.795 398.94 214.676 399.183C213.557 399.426 212.504 399.905 211.587 400.589L171.385 429.662L161.73 429.241C161.177 429.223 160.633 429.377 160.173 429.683C159.713 429.99 159.361 430.432 159.167 430.947C158.973 431.463 158.947 432.026 159.093 432.558C159.238 433.089 159.547 433.561 159.977 433.908L169.378 441.329C169.533 441.453 169.717 441.536 169.913 441.569C170.109 441.602 170.31 441.584 170.498 441.518C173.181 440.488 183.173 435.212 194.982 428.758L197.349 452.954C197.369 453.163 197.446 453.363 197.572 453.532C197.698 453.701 197.868 453.833 198.063 453.913C198.259 453.993 198.473 454.019 198.682 453.987C198.891 453.954 199.087 453.866 199.25 453.731L204.531 449.359C204.82 449.118 205.015 448.783 205.081 448.413L210.087 420.476C218.538 415.809 226.608 411.289 232.291 408.094C232.88 407.775 233.357 407.283 233.657 406.685C233.956 406.087 234.063 405.412 233.964 404.751C233.865 404.09 233.564 403.476 233.102 402.991C232.64 402.506 232.04 402.174 231.382 402.04Z" fill="#FFF100"/>
</svg>
